<?xml version="1.0" encoding="UTF-8"?>
<svg id="Layer_1" data-name="Layer 1" xmlns="http://www.w3.org/2000/svg" version="1.1" viewBox="0 0 25.5 25.2">
  <defs>
    <style>
      .cls-1 {
        fill: #f6c765;
      }

      .cls-1, .cls-2, .cls-3, .cls-4 {
        fill-rule: evenodd;
        stroke-width: 0px;
      }

      .cls-2 {
        fill: #181d25;
      }

      .cls-3 {
        fill: #5562eb;
      }

      .cls-4 {
        fill: #e29eb2;
      }
    </style>
  </defs>
  <g id="reclaim_revised-illustrations" data-name="reclaim revised-illustrations">
    <g id="desktop">
      <g id="Group-10">
        <g id="Group-2">
          <g id="Group-23">
            <path id="Fill-15" class="cls-2" d="M24.9,5.8C24.9,2.6,22.3,0,19.1,0s-5.8,2.6-5.8,5.8,2.6,5.8,5.8,5.8,5.8-2.6,5.8-5.8"/>
            <polygon id="Fill-16" class="cls-4" points="0 11.6 11.7 11.6 11.7 0 0 0 0 11.6"/>
            <polygon id="Fill-17" class="cls-1" points="19.2 13.1 22.4 18.8 25.5 24.4 19.2 24.4 13 24.4 16.1 18.8 19.2 13.1"/>
            <path id="Fill-18" class="cls-3" d="M11.6,19.4c0-3.2-2.6-5.8-5.8-5.8S0,16.2,0,19.4s2.6,5.8,5.8,5.8,5.8-2.6,5.8-5.8"/>
          </g>
        </g>
      </g>
    </g>
  </g>
</svg>